<svg xmlns="http://www.w3.org/2000/svg" width="20" height="20" fill="none" viewBox="0 0 20 20"><path fill="#FA114F" d="M10 0C4.486 0 0 4.48601 0 10C0 15.514 4.48595 20 10 20C15.514 20 20 15.514 20 10C20 4.48601 15.514 0 10 0ZM10 18.483C5.32249 18.483 1.51703 14.6775 1.51703 10C1.51703 5.32249 5.32249 1.51703 10 1.51703C14.6776 1.51703 18.483 5.32249 18.483 10C18.483 14.6775 14.6776 18.483 10 18.483Z"/><path fill="#FA114F" d="M10.4898 10.377V5.47711H8.97278V11.1789L12.8821 13.843L13.7364 12.5893L10.4898 10.377Z"/><circle cx="13.274" cy="13.186" r=".759" fill="#FA114F"/><circle cx="9.736" cy="5.5" r=".759" fill="#FA114F"/></svg>